<svg id="Capa_1" data-name="Capa 1" xmlns="http://www.w3.org/2000/svg" viewBox="0 0 92.78 48.51"><defs><style>.cls-1{fill:#fff;}</style></defs><title>mbw</title><path class="cls-1" d="M94.2,41.26a24.29,24.29,0,0,0-44.49-.49,24.18,24.18,0,1,0,0,19.85A24.26,24.26,0,0,0,94.2,41.26ZM46,58.49A20,20,0,1,1,27.58,30.68a19.78,19.78,0,0,1,7.79,1.58A20,20,0,0,1,46,58.49Zm44.27,0A20,20,0,1,1,71.85,30.68a19.78,19.78,0,0,1,7.79,1.58A20,20,0,0,1,90.29,58.49Z" transform="translate(-3.33 -26.44)"/><path class="cls-1" d="M38.23,39.17a.67.67,0,0,0-.25-.48.74.74,0,0,0-.5-.2H32.25a.78.78,0,0,0-.78.59L27.27,53,23.11,39.08a.72.72,0,0,0-.73-.59h-5.3a.69.69,0,0,0-.52.2.84.84,0,0,0-.21.48L14.16,60.55a.58.58,0,0,0,.65.67h4.34c.48,0,.73-.22.75-.67l1.33-11.8,3.44,11.88a.67.67,0,0,0,.22.37.59.59,0,0,0,.39.21h4a.55.55,0,0,0,.38-.21,1,1,0,0,0,.22-.37l3.44-11.91,1.33,11.83a.64.64,0,0,0,.74.67h4.33c.45,0,.67-.19.67-.59v-.08c-.35-3.59-.72-7.15-1.09-10.69S38.59,42.76,38.23,39.17Z" transform="translate(-3.33 -26.44)"/><path class="cls-1" d="M80,49a5.9,5.9,0,0,0,1-1.76,6.2,6.2,0,0,0,.36-2.14,6.36,6.36,0,0,0-.52-2.58,6.61,6.61,0,0,0-3.5-3.5,6.45,6.45,0,0,0-2.54-.52H64.61a.62.62,0,0,0-.49.2.69.69,0,0,0-.18.51V60.57a.61.61,0,0,0,.18.49.72.72,0,0,0,.49.16H75.68a6.08,6.08,0,0,0,2.56-.55,6.77,6.77,0,0,0,2.13-1.49A7.27,7.27,0,0,0,81.82,57a6.73,6.73,0,0,0,.53-2.64,6.93,6.93,0,0,0-.64-3A7.63,7.63,0,0,0,80,49ZM69.86,43h3.29a2.34,2.34,0,0,1,.93.18,2,2,0,0,1,.74.48,2.14,2.14,0,0,1,.65,1.56,2.14,2.14,0,0,1-.18.89,2.22,2.22,0,0,1-.48.71,2.2,2.2,0,0,1-.75.46,2.69,2.69,0,0,1-1,.16H69.86ZM76.1,55.07a2.55,2.55,0,0,1-.5.82,2.33,2.33,0,0,1-.75.57,2,2,0,0,1-.94.22h-4V51.57h4a1.94,1.94,0,0,1,1,.23,2.55,2.55,0,0,1,.75.59,2.78,2.78,0,0,1,.49.81,2.52,2.52,0,0,1,0,1.87Z" transform="translate(-3.33 -26.44)"/></svg>